<?xml version="1.0" encoding="UTF-8"?>
<svg width="710px" height="133px" viewBox="0 0 710 133" version="1.1" xmlns="http://www.w3.org/2000/svg" xmlns:xlink="http://www.w3.org/1999/xlink">
    <!-- Generator: Sketch 63.1 (92452) - https://sketch.com -->
    <title>Shape</title>
    <desc>Created with Sketch.</desc>
    <g id="Page-1" stroke="none" stroke-width="1" fill="none" fill-rule="evenodd">
        <path d="M694.570313,116.097656 C694.570313,121.519531 695.96875,123.972656 697.894531,125.902344 C699.8125,127.828125 702.445313,129.058594 707.703125,129.058594 C708.21875,129.058594 709.273438,129.058594 709.273438,129.578125 C709.273438,130.101563 708.21875,130.101563 707.703125,130.101563 L664.632813,130.101563 C664.109375,130.101563 663.058594,130.101563 663.058594,129.578125 C663.058594,129.058594 664.109375,129.058594 664.632813,129.058594 C669.882813,129.058594 672.511719,127.828125 674.4375,125.902344 C676.363281,123.972656 677.769531,121.171875 677.769531,116.097656 L677.769531,17.714844 C677.769531,12.28125 676.539063,9.480469 674.4375,7.386719 C672.511719,5.453125 670.410156,4.230469 665.160156,4.230469 C664.632813,4.230469 663.578125,4.230469 663.578125,3.703125 C663.578125,3.179688 664.632813,3.179688 665.160156,3.179688 L707.171875,3.179688 C707.703125,3.179688 708.746094,3.179688 708.746094,3.703125 C708.746094,4.230469 707.703125,4.230469 707.171875,4.230469 C701.917969,4.230469 699.8125,5.453125 697.894531,7.386719 C695.800781,9.480469 694.570313,12.28125 694.570313,17.714844 L694.570313,116.097656 Z M634.695313,4.230469 L634.695313,116.097656 C634.695313,121.519531 636.101563,123.972656 638.019531,125.902344 C639.945313,127.828125 642.570313,129.058594 647.824219,129.058594 C648.347656,129.058594 649.398438,129.058594 649.398438,129.578125 C649.398438,130.101563 648.347656,130.101563 647.824219,130.101563 L604.765625,130.101563 C604.230469,130.101563 603.183594,130.101563 603.183594,129.578125 C603.183594,129.058594 604.230469,129.058594 604.765625,129.058594 C610.011719,129.058594 612.636719,127.828125 614.5625,125.902344 C616.496094,123.972656 617.894531,121.171875 617.894531,116.097656 L617.894531,4.230469 L611.585938,4.230469 C607.90625,4.585938 604.0625,7.898438 601.777344,10.707031 C598.808594,14.03125 594.964844,22.785156 594.257813,29.445313 L594.257813,33.460938 C594.257813,34.164063 594.082031,34.6875 593.734375,34.6875 C593.378906,34.6875 593.207031,34.164063 593.207031,33.460938 L593.207031,4.054688 C593.207031,3.355469 593.378906,3.003906 593.902344,3.003906 L607.738281,3.179688 L644.847656,3.179688 L658.675781,3.003906 C659.207031,3.003906 659.375,3.355469 659.375,4.054688 L659.375,33.460938 C659.375,34.164063 659.207031,34.6875 658.855469,34.6875 C658.507813,34.6875 658.332031,34.164063 658.332031,33.460938 L658.332031,29.445313 C657.632813,22.785156 653.773438,14.03125 650.804688,10.707031 C648.53125,7.898438 644.671875,4.585938 640.996094,4.230469 L634.695313,4.230469 Z M557.492188,4.230469 L557.492188,116.097656 C557.492188,121.519531 558.898438,123.972656 560.816406,125.902344 C562.742188,127.828125 565.367188,129.058594 570.621094,129.058594 C571.144531,129.058594 572.195313,129.058594 572.195313,129.578125 C572.195313,130.101563 571.144531,130.101563 570.621094,130.101563 L527.5625,130.101563 C527.03125,130.101563 525.980469,130.101563 525.980469,129.578125 C525.980469,129.058594 527.03125,129.058594 527.5625,129.058594 C532.808594,129.058594 535.433594,127.828125 537.359375,125.902344 C539.289063,123.972656 540.683594,121.171875 540.683594,116.097656 L540.683594,4.230469 L534.382813,4.230469 C530.703125,4.585938 526.859375,7.898438 524.574219,10.707031 C521.605469,14.03125 517.746094,22.785156 517.050781,29.445313 L517.050781,33.460938 C517.050781,34.164063 516.878906,34.6875 516.53125,34.6875 C516.175781,34.6875 516.003906,34.164063 516.003906,33.460938 L516.003906,4.054688 C516.003906,3.355469 516.175781,3.003906 516.699219,3.003906 L530.527344,3.179688 L567.644531,3.179688 L581.476563,3.003906 C582.003906,3.003906 582.171875,3.355469 582.171875,4.054688 L582.171875,33.460938 C582.171875,34.164063 582.003906,34.6875 581.648438,34.6875 C581.304688,34.6875 581.128906,34.164063 581.128906,33.460938 L581.128906,29.445313 C580.429688,22.785156 576.570313,14.03125 573.601563,10.707031 C571.328125,7.898438 567.472656,4.585938 563.792969,4.230469 L557.492188,4.230469 Z M440.726563,130.101563 C440.195313,130.101563 439.144531,130.101563 439.144531,129.578125 C439.144531,129.058594 440.195313,129.058594 440.726563,129.058594 C445.976563,129.058594 448.601563,127.828125 450.523438,125.902344 C452.460938,123.972656 453.855469,121.171875 453.855469,116.097656 L453.855469,18.410156 C453.855469,12.457031 452.628906,9.480469 450.523438,7.386719 C448.601563,5.453125 446.328125,4.230469 441.070313,4.230469 C440.542969,4.230469 439.5,4.230469 439.5,3.703125 C439.5,3.179688 440.542969,3.179688 441.070313,3.179688 L483.269531,3.179688 L502.519531,3.003906 C503.046875,3.003906 503.226563,3.179688 503.226563,3.878906 L503.226563,35.746094 C503.226563,36.621094 503.226563,37.488281 502.695313,37.488281 C502.171875,37.488281 502.171875,36.621094 502.171875,35.746094 L502.171875,29.792969 C500.597656,16.832031 490.796875,4.753906 478.1875,4.230469 L471.890625,4.230469 C471.1875,4.230469 470.660156,4.753906 470.660156,5.453125 L470.660156,58.5 L475.5625,58.5 C483.613281,57.800781 489.914063,49.921875 490.613281,41.871094 L490.613281,39.59375 C490.613281,38.894531 490.796875,38.363281 491.144531,38.363281 C491.492188,38.363281 491.671875,38.894531 491.671875,39.59375 L491.671875,80.558594 C491.671875,81.257813 491.492188,81.785156 491.144531,81.785156 C490.796875,81.785156 490.613281,81.257813 490.613281,80.558594 L490.613281,77.230469 C489.914063,69.179688 483.613281,60.253906 475.5625,59.550781 L470.660156,59.550781 L470.660156,118.550781 C470.660156,121.695313 471.359375,123.972656 472.933594,125.902344 C473.988281,127.300781 475.210938,128.882813 478.011719,129.058594 L485.363281,129.058594 C495.519531,128.183594 506.027344,108.566406 506.902344,97.367188 L506.902344,94.5625 C506.902344,93.160156 506.902344,92.460938 507.425781,92.460938 C507.945313,92.460938 507.945313,92.992188 507.945313,93.6875 L507.945313,129.402344 C507.945313,130.101563 507.769531,130.285156 507.246094,130.285156 L492.023438,130.101563 L440.726563,130.101563 Z M383.476563,86.332031 C383.476563,85.460938 383.476563,84.589844 384.003906,84.589844 C384.527344,84.589844 384.527344,85.460938 384.527344,86.332031 L384.527344,92.816406 C385.929688,105.246094 391.699219,122.394531 400.464844,128.183594 C402.558594,129.578125 407.285156,131.507813 412.015625,131.507813 C417.96875,131.507813 421.296875,130.285156 424.269531,126.605469 C426.898438,123.453125 427.597656,117.492188 427.597656,113.648438 C427.597656,105.246094 423.039063,98.59375 416.039063,88.785156 L389.429688,51.492188 C382.777344,42.046875 378.757813,33.820313 378.757813,25.585938 C378.757813,11.582031 389.078125,1.429688 402.734375,1.429688 C405.703125,1.429688 408.507813,1.953125 411.140625,3.003906 C413.0625,3.703125 415.164063,4.402344 417.4375,4.402344 C419.363281,4.402344 421.644531,4.054688 423.738281,2.65625 C424.964844,1.78125 425.140625,1.429688 425.316406,1.429688 C425.671875,1.429688 425.671875,1.601563 425.671875,1.953125 L425.671875,36.445313 C425.671875,37.144531 425.496094,37.664063 425.140625,37.664063 C424.796875,37.664063 424.621094,37.144531 424.621094,36.445313 L424.621094,32.761719 C423.738281,23.835938 418.3125,8.78125 411.667969,4.753906 C409.035156,3.179688 405.535156,2.480469 402.734375,2.480469 C399.757813,2.480469 397.136719,3.527344 395.207031,5.8125 C392.761719,8.613281 392.0625,12.457031 392.0625,16.832031 C392.0625,24.015625 396.074219,30.667969 401.160156,37.488281 L425.671875,71.28125 C437.394531,86.859375 439.320313,95.085938 439.320313,104.195313 C439.320313,122.230469 426.898438,132.558594 412.015625,132.558594 C403.433594,132.558594 399.757813,128 392.929688,128 C389.429688,128 387.15625,129.226563 384.871094,130.800781 C384.175781,131.328125 383.828125,131.683594 383.65625,131.683594 C383.476563,131.683594 383.476563,131.328125 383.476563,130.632813 L383.476563,86.332031 Z M319.578125,95.261719 L346.890625,95.261719 L333.238281,37.144531 L319.578125,95.261719 Z M340.585938,0.027344 L341.285156,0.027344 L369.128906,117.492188 C369.824219,120.472656 371.046875,123.972656 373.320313,126.257813 C374.550781,127.484375 376.476563,128.695313 378.925781,129.058594 C379.453125,129.058594 380.496094,129.058594 380.496094,129.578125 C380.496094,130.101563 379.453125,130.101563 378.925781,130.101563 L344.441406,130.101563 C343.910156,130.101563 342.867188,130.101563 342.867188,129.578125 C342.867188,129.058594 343.910156,129.058594 344.441406,129.058594 C347.066406,128.695313 349.511719,128.183594 351.261719,126.257813 C352.320313,125.027344 352.84375,123.273438 352.84375,121.875 C352.84375,121 352.667969,119.769531 352.492188,119.074219 L347.066406,96.3125 L319.402344,96.3125 L315.558594,112.769531 C315.203125,114.523438 315.027344,116.273438 315.027344,117.144531 C315.027344,120.125 316.777344,123.625 319.054688,125.550781 C320.628906,126.953125 323.429688,128.695313 327.28125,129.058594 C328.15625,129.058594 328.855469,129.058594 328.855469,129.578125 C328.855469,130.101563 328.15625,130.101563 327.28125,130.101563 L300.671875,130.101563 C299.796875,130.101563 299.097656,130.101563 299.097656,129.578125 C299.097656,129.058594 299.796875,129.058594 300.671875,129.058594 C304.171875,128.695313 306.800781,126.425781 308.726563,124.5 C310.652344,122.574219 312.757813,118.367188 314.152344,112.769531 L340.585938,0.027344 Z M293.664063,130.980469 C293.144531,130.980469 292.621094,129.925781 291.222656,126.953125 L242.375,21.390625 L242.199219,21.390625 L242.199219,110.492188 C242.550781,116.273438 244.125,120.472656 245.875,123.273438 C247.632813,126.078125 251.476563,128.527344 255.855469,129.058594 L257.085938,129.058594 C258.304688,129.058594 258.660156,129.226563 258.660156,129.578125 C258.660156,130.101563 257.605469,130.101563 257.085938,130.101563 L227.667969,130.101563 C227.144531,130.101563 226.09375,130.101563 226.09375,129.578125 C226.09375,129.226563 226.4375,129.058594 227.667969,129.058594 L228.894531,129.058594 C232.222656,128.695313 235.371094,126.078125 237.128906,123.273438 C238.871094,120.472656 240.449219,116.273438 240.800781,110.492188 L240.800781,18.058594 C239.054688,14.03125 237.824219,10.707031 234.847656,7.730469 C232.753906,5.628906 229.597656,4.402344 227.320313,4.230469 C226.4375,4.230469 225.738281,4.230469 225.738281,3.703125 C225.738281,3.179688 226.796875,3.179688 227.320313,3.179688 L250.953125,3.179688 C251.652344,3.179688 251.652344,3.355469 252.003906,4.054688 L292.621094,91.417969 L292.796875,91.417969 L292.796875,21.558594 C292.445313,15.789063 290.863281,12.457031 289.121094,9.65625 C287.367188,6.855469 283.519531,4.753906 279.140625,4.230469 L277.917969,4.230469 C276.691406,4.230469 276.339844,4.054688 276.339844,3.703125 C276.339844,3.179688 277.390625,3.179688 277.917969,3.179688 L307.324219,3.179688 C307.851563,3.179688 308.898438,3.179688 308.898438,3.703125 C308.898438,4.054688 308.550781,4.230469 307.324219,4.230469 L306.097656,4.230469 C302.773438,4.585938 299.628906,6.855469 297.871094,9.65625 C296.121094,12.457031 294.539063,15.789063 294.195313,21.558594 L294.195313,127.121094 C294.195313,130.285156 294.023438,130.980469 293.664063,130.980469 L293.664063,130.980469 Z M179,4.230469 L179,58.5 L185.652344,58.5 C198.429688,58.5 201.761719,50.097656 201.761719,31.1875 C201.761719,20.332031 201.0625,12.8125 196.855469,8.261719 C194.402344,5.453125 188.800781,4.230469 184.785156,4.230469 L179,4.230469 Z M179,59.550781 L179,116.097656 C179,121.519531 180.402344,123.972656 182.328125,125.902344 C184.257813,127.828125 186.882813,129.058594 192.128906,129.058594 C192.660156,129.058594 193.703125,129.058594 193.703125,129.578125 C193.703125,130.101563 192.660156,130.101563 192.128906,130.101563 L149.066406,130.101563 C148.535156,130.101563 147.492188,130.101563 147.492188,129.578125 C147.492188,129.058594 148.535156,129.058594 149.066406,129.058594 C154.320313,129.058594 156.9375,127.828125 158.867188,125.902344 C160.792969,123.972656 162.195313,121.171875 162.195313,116.097656 L162.195313,17.714844 C162.195313,12.28125 160.96875,9.480469 158.867188,7.386719 C156.9375,5.453125 154.140625,4.230469 148.890625,4.230469 C148.367188,4.230469 147.316406,4.230469 147.316406,3.703125 C147.316406,3.179688 148.367188,3.179688 148.890625,3.179688 L188.453125,3.179688 C206.488281,3.179688 218.035156,14.382813 218.035156,29.960938 C218.035156,39.421875 214.535156,45.023438 209.632813,49.921875 C204.5625,55 197.5625,57.625 189.328125,59.027344 L189.328125,59.199219 C199.488281,60.953125 206.664063,64.453125 210.339844,67.78125 C214.71875,71.804688 217.519531,78.105469 217.519531,86.164063 L217.519531,115.75 C217.519531,122.054688 219.09375,125.550781 220.667969,126.953125 C221.542969,127.828125 222.9375,128.351563 223.636719,128.351563 C223.996094,128.351563 223.996094,128.695313 223.996094,128.695313 C223.996094,129.226563 221.71875,130.453125 218.394531,130.453125 C207.191406,130.453125 200.53125,122.230469 200.53125,104.894531 L200.53125,78.632813 C200.53125,65.496094 196.335938,61.125 187.753906,59.550781 L179,59.550781 Z M93.925781,116.972656 C95.667969,122.75 97.246094,126.078125 100.394531,128.527344 C102.148438,129.753906 105.296875,130.800781 108.980469,130.800781 C112.65625,130.800781 115.800781,129.753906 117.558594,128.527344 C120.703125,126.078125 122.285156,122.75 124.027344,116.972656 C127.355469,106.289063 128.058594,82.832031 128.058594,66.902344 C128.058594,50.972656 127.355469,26.992188 124.027344,16.308594 C122.285156,10.53125 120.703125,7.210938 117.558594,4.753906 C115.800781,3.527344 112.65625,2.480469 108.980469,2.480469 C105.296875,2.480469 102.148438,3.527344 100.394531,4.753906 C97.246094,7.210938 95.667969,10.53125 93.925781,16.308594 C90.59375,26.992188 89.894531,50.972656 89.894531,66.902344 C89.894531,82.832031 90.59375,106.289063 93.925781,116.972656 Z M71.335938,66.902344 C71.335938,28.917969 89.367188,1.429688 108.980469,1.429688 C128.585938,1.429688 146.617188,29.261719 146.617188,66.902344 C146.617188,103.851563 128.585938,131.855469 108.980469,131.855469 C89.367188,131.855469 71.335938,103.851563 71.335938,66.902344 Z M32.820313,116.097656 C32.820313,121.519531 34.226563,123.972656 36.148438,125.902344 C38.070313,127.828125 41.398438,129.058594 46.65625,129.058594 C47.179688,129.058594 48.230469,129.058594 48.230469,129.578125 C48.230469,130.101563 47.179688,130.101563 46.65625,130.101563 L2.886719,130.101563 C2.355469,130.101563 1.3125,130.101563 1.3125,129.578125 C1.3125,129.058594 2.355469,129.058594 2.886719,129.058594 C8.136719,129.058594 10.761719,127.828125 12.691406,125.902344 C14.617188,123.972656 16.015625,121.171875 16.015625,116.097656 L16.015625,18.410156 C16.015625,12.457031 14.789063,9.480469 12.691406,7.386719 C10.761719,5.453125 7.4375,4.230469 2.1875,4.230469 C1.660156,4.230469 0.613281,4.230469 0.613281,3.703125 C0.613281,3.179688 1.660156,3.179688 2.1875,3.179688 L44.023438,3.179688 L64.160156,3.003906 C64.6875,3.003906 64.855469,3.179688 64.855469,3.703125 L64.855469,35.914063 C64.855469,36.789063 64.6875,37.488281 64.335938,37.488281 C63.984375,37.488281 63.8125,36.96875 63.8125,35.914063 L63.8125,31.71875 C62.761719,17.714844 52.957031,5.101563 39.828125,4.230469 L33.878906,4.230469 C33.167969,4.230469 32.820313,4.585938 32.820313,5.28125 L32.820313,60.253906 L38.070313,60.253906 C46.125,59.550781 52.425781,50.796875 53.132813,42.746094 L53.132813,40.121094 C53.132813,39.421875 53.300781,38.894531 53.652344,38.894531 C54,38.894531 54.183594,39.421875 54.183594,40.121094 L54.183594,81.785156 C54.183594,82.484375 54,83.015625 53.652344,83.015625 C53.300781,83.015625 53.132813,82.484375 53.132813,81.785156 L53.132813,78.808594 C52.425781,70.753906 46.125,61.996094 38.070313,61.300781 L32.820313,61.300781 L32.820313,116.097656 Z" id="Shape" fill="#000000" fill-rule="nonzero"></path>
    </g>
</svg>